<?xml version="1.0" encoding="UTF-8" standalone="no"?>
<!-- Created with Inkscape (http://www.inkscape.org/) -->

<svg
   width="400"
   height="150"
   viewBox="0 0 105.83333 39.6875"
   version="1.1"
   id="svg5"
   xml:space="preserve"
   inkscape:version="1.2.2 (732a01da63, 2022-12-09)"
   sodipodi:docname="cloud.svg"
   xmlns:inkscape="http://www.inkscape.org/namespaces/inkscape"
   xmlns:sodipodi="http://sodipodi.sourceforge.net/DTD/sodipodi-0.dtd"
   xmlns="http://www.w3.org/2000/svg"
   xmlns:svg="http://www.w3.org/2000/svg"><sodipodi:namedview
     id="namedview7"
     pagecolor="#ffffff"
     bordercolor="#000000"
     borderopacity="0.25"
     inkscape:showpageshadow="2"
     inkscape:pageopacity="0.0"
     inkscape:pagecheckerboard="0"
     inkscape:deskcolor="#d1d1d1"
     inkscape:document-units="mm"
     showgrid="false"
     inkscape:zoom="0.2859638"
     inkscape:cx="260.52248"
     inkscape:cy="-164.35646"
     inkscape:window-width="1304"
     inkscape:window-height="745"
     inkscape:window-x="1358"
     inkscape:window-y="-8"
     inkscape:window-maximized="1"
     inkscape:current-layer="layer1" /><defs
     id="defs2" /><g
     inkscape:label="Camada 1"
     inkscape:groupmode="layer"
     id="layer1"><g
       id="g5239"><path
         id="path3866-2"
         style="fill:#b4d0e6;fill-opacity:0.74902;stroke:none;stroke-width:0.425855;stroke-linecap:square;stroke-dasharray:2.55511, 2.55511;paint-order:fill markers stroke"
         d="M 105.83333,1.8774 A 18.758506,14.512366 0 0 0 93.179845,15.31638 18.758506,14.512366 0 0 0 85.677461,23.22856 18.758506,14.512366 0 0 0 81.673054,23.0172 18.758506,14.512366 0 0 0 69.571467,26.95339 8.8891357,6.8770076 0 0 0 65.66938,26.38547 8.8891357,6.8770076 0 0 0 61.509944,27.33683 18.758506,14.512366 0 0 0 50.27497,24.86308 18.758506,14.512366 0 0 0 39.00279,28.22773 8.8891357,6.8770076 0 0 0 35.392158,27.75386 8.8891357,6.8770076 0 0 0 29.515514,29.72222 18.758506,14.512366 0 0 0 20.968749,28.41687 18.758506,14.512366 0 0 0 3.4426869,39.6875 H 105.83333 Z" /><path
         id="path340-8"
         style="fill:#ffffff;stroke:none;stroke-width:0.41795;stroke-linecap:square;stroke-dasharray:2.50769, 2.50769;paint-order:fill markers stroke"
         d="M 105.09436,10.11824 A 16.193104,16.193104 0 0 0 89.598668,23.84506 16.193104,16.193104 0 0 0 81.995515,31.72416 16.193104,16.193104 0 0 0 78.601924,31.02653 16.193104,16.193104 0 0 0 67.660473,33.97674 7.6734626,7.6734626 0 0 0 64.407441,32.8967 7.6734626,7.6734626 0 0 0 60.706892,33.46669 16.193104,16.193104 0 0 0 51.466629,29.42973 16.193104,16.193104 0 0 0 41.319961,31.84457 7.6734626,7.6734626 0 0 0 38.302575,30.90199 7.6734626,7.6734626 0 0 0 32.980419,32.39751 16.193104,16.193104 0 0 0 25.865091,29.96355 16.193104,16.193104 0 0 0 9.4815948,39.6875 H 105.83333 v -29.546 a 16.193104,16.193104 0 0 0 -0.73897,-0.0233 z" /><rect
         style="opacity:1;fill:none;fill-opacity:0.74902;stroke:none;stroke-width:0.600001;stroke-linecap:square;stroke-dasharray:3.6, 3.6;paint-order:fill markers stroke"
         id="rect5180"
         width="105.83333"
         height="39.6875"
         x="0"
         y="0" /></g></g></svg>
