<?xml version="1.0" encoding="UTF-8" standalone="no"?>
<!-- Created with Inkscape (http://www.inkscape.org/) -->

<svg
   width="130"
   height="130"
   viewBox="0 0 34.395832 34.395833"
   version="1.1"
   id="svg361"
   inkscape:version="1.2.2 (732a01da63, 2022-12-09)"
   sodipodi:docname="moon.svg"
   xmlns:inkscape="http://www.inkscape.org/namespaces/inkscape"
   xmlns:sodipodi="http://sodipodi.sourceforge.net/DTD/sodipodi-0.dtd"
   xmlns="http://www.w3.org/2000/svg"
   xmlns:svg="http://www.w3.org/2000/svg">
  <sodipodi:namedview
     id="namedview363"
     pagecolor="#ffffff"
     bordercolor="#000000"
     borderopacity="0.25"
     inkscape:showpageshadow="2"
     inkscape:pageopacity="0.0"
     inkscape:pagecheckerboard="0"
     inkscape:deskcolor="#d1d1d1"
     inkscape:document-units="mm"
     showgrid="false"
     inkscape:zoom="0.80882778"
     inkscape:cx="58.726964"
     inkscape:cy="100.14493"
     inkscape:window-width="1304"
     inkscape:window-height="745"
     inkscape:window-x="1358"
     inkscape:window-y="-8"
     inkscape:window-maximized="1"
     inkscape:current-layer="layer1" />
  <defs
     id="defs358" />
  <g
     inkscape:label="Camada 1"
     inkscape:groupmode="layer"
     id="layer1"
     transform="translate(-42.02511,-79.699957)">
    <g
       id="g2935">
      <circle
         style="fill:#cccccc;fill-opacity:1;stroke:none;stroke-width:0.37336;stroke-linecap:square;stroke-dasharray:2.24016, 2.24016;paint-order:fill markers stroke"
         id="path586"
         cx="82.284065"
         cy="78.268112"
         r="17.197916"
         transform="rotate(15)" />
      <g
         id="g714"
         transform="translate(-7.9375096,-2.6458314)">
        <circle
           style="fill:#999999;fill-opacity:0.74902;stroke:none;stroke-width:0.0720633;stroke-linecap:square;stroke-dasharray:0.432379, 0.432379;paint-order:fill markers stroke"
           id="circle640"
           cx="81.004089"
           cy="-100.58856"
           r="3.319411"
           transform="rotate(105)" />
        <path
           id="circle640-5"
           style="fill:#999999;fill-opacity:0.74902;stroke:none;stroke-width:0.0720633;stroke-linecap:square;stroke-dasharray:0.432379, 0.432379;paint-order:fill markers stroke"
           d="m 76.071417,100.96146 a 3.319411,3.319411 0 0 0 -2.637565,1.47898 3.3558242,3.3558242 0 0 1 3.24683,-0.87488 3.3558242,3.3558242 0 0 1 2.372982,4.10983 3.3558242,3.3558242 0 0 1 -0.254765,0.65836 3.319411,3.319411 0 0 0 0.603064,-1.19631 3.319411,3.319411 0 0 0 -2.347144,-4.06539 3.319411,3.319411 0 0 0 -0.983402,-0.11059 z" />
      </g>
      <g
         id="g706"
         transform="translate(-7.9375096,-2.6458314)">
        <circle
           style="fill:#999999;fill-opacity:0.74902;stroke:none;stroke-width:0.12228;stroke-linecap:square;stroke-dasharray:0.733676, 0.733676;paint-order:fill markers stroke"
           id="circle642"
           cx="86.709435"
           cy="83.57753"
           r="5.6324954"
           transform="rotate(15)" />
        <path
           id="circle642-2"
           style="fill:#999999;fill-opacity:0.74902;stroke:none;stroke-width:0.12228;stroke-linecap:square;stroke-dasharray:0.733676, 0.733676;paint-order:fill markers stroke"
           d="m 61.912591,97.543595 a 5.6324954,5.6324954 0 0 0 -3.614249,1.49913 5.6942825,5.6942825 0 0 1 4.760949,-0.85473 5.6942825,5.6942825 0 0 1 4.026628,6.974245 5.6942825,5.6942825 0 0 1 -1.006657,2.01745 5.6324954,5.6324954 0 0 0 1.484663,-2.55023 5.6324954,5.6324954 0 0 0 -3.982702,-6.898285 5.6324954,5.6324954 0 0 0 -1.668632,-0.18758 z" />
      </g>
      <g
         id="g710"
         transform="translate(-7.9375096,-2.6458314)">
        <circle
           style="fill:#999999;fill-opacity:0.74902;stroke:none;stroke-width:0.0620201;stroke-linecap:square;stroke-dasharray:0.372119, 0.372119;paint-order:fill markers stroke"
           id="circle644"
           cx="87.969269"
           cy="70.198936"
           r="2.8567944"
           transform="rotate(15)" />
        <path
           id="circle644-5"
           style="fill:#999999;fill-opacity:0.74902;stroke:none;stroke-width:0.0620201;stroke-linecap:square;stroke-dasharray:0.372119, 0.372119;paint-order:fill markers stroke"
           d="m 66.696278,87.720417 a 2.8567944,2.8567944 0 0 0 -1.775085,0.7059 2.8881328,2.8881328 0 0 1 2.143022,-0.262516 2.8881328,2.8881328 0 0 1 2.042252,3.537254 2.8881328,2.8881328 0 0 1 -0.682128,1.2237 2.8567944,2.8567944 0 0 0 1.137914,-1.610242 2.8567944,2.8567944 0 0 0 -2.020031,-3.498495 2.8567944,2.8567944 0 0 0 -0.845944,-0.0956 z" />
      </g>
    </g>
  </g>
</svg>
