<?xml version="1.0" encoding="UTF-8" standalone="no"?>
<!-- Created with Inkscape (http://www.inkscape.org/) -->

<svg
   width="400"
   height="150"
   viewBox="0 0 105.83333 39.6875"
   version="1.1"
   id="svg5"
   xml:space="preserve"
   sodipodi:docname="stars.svg"
   inkscape:version="1.2.2 (732a01da63, 2022-12-09)"
   xmlns:inkscape="http://www.inkscape.org/namespaces/inkscape"
   xmlns:sodipodi="http://sodipodi.sourceforge.net/DTD/sodipodi-0.dtd"
   xmlns="http://www.w3.org/2000/svg"
   xmlns:svg="http://www.w3.org/2000/svg"><sodipodi:namedview
     id="namedview7"
     pagecolor="#ffffff"
     bordercolor="#000000"
     borderopacity="0.25"
     inkscape:showpageshadow="2"
     inkscape:pageopacity="0.0"
     inkscape:pagecheckerboard="0"
     inkscape:deskcolor="#d1d1d1"
     inkscape:document-units="mm"
     showgrid="false"
     inkscape:zoom="1.6176556"
     inkscape:cx="218.21703"
     inkscape:cy="42.036143"
     inkscape:window-width="1304"
     inkscape:window-height="745"
     inkscape:window-x="1358"
     inkscape:window-y="-8"
     inkscape:window-maximized="1"
     inkscape:current-layer="layer1" /><defs
     id="defs2" /><g
     inkscape:label="Camada 1"
     inkscape:groupmode="layer"
     id="layer1"><g
       id="g6398"><rect
         style="opacity:1;fill:none;fill-opacity:0.74902;stroke:none;stroke-width:0.600001;stroke-linecap:square;stroke-dasharray:3.6, 3.6;paint-order:fill markers stroke"
         id="rect6381"
         width="105.83333"
         height="39.6875"
         x="0"
         y="0" /><path
         style="opacity:1;fill:#ffffff;fill-opacity:0.74902;stroke:none;stroke-width:0.0966206;stroke-linecap:square;stroke-dasharray:0.579726, 0.579726;paint-order:fill markers stroke"
         d="m 33.32965,15.510829 c -0.180982,-1.507109 -1.30829,-2.98531 -2.754668,-3.612105 -0.377114,-0.163424 -1.068434,-0.353741 -1.315126,-0.362046 -0.118061,-0.0041 -0.09511,-0.01383 0.09772,-0.04196 2.038608,-0.29733 3.685503,-1.9442261 3.982835,-3.9828342 0.02812,-0.1928275 0.03799,-0.2157824 0.04196,-0.097718 0.0029,0.084872 0.05164,0.3373746 0.108392,0.5611161 0.464912,1.8327392 1.93763,3.1882151 3.805103,3.5021821 0.21955,0.03692 0.279117,0.05714 0.176798,0.06004 -0.244322,0.0069 -0.935827,0.196848 -1.315125,0.36122 -1.450876,0.628743 -2.557138,2.082858 -2.762036,3.630524 l -0.03337,0.252033 z"
         id="path5379" /><path
         style="opacity:1;fill:#ffffff;fill-opacity:0.74902;stroke:none;stroke-width:0.0966206;stroke-linecap:square;stroke-dasharray:0.579726, 0.579726;paint-order:fill markers stroke"
         d="m 57.352505,19.730459 c -0.180982,-1.507109 -1.30829,-2.98531 -2.754668,-3.612105 -0.377114,-0.163424 -1.068434,-0.353741 -1.315126,-0.362046 -0.118061,-0.0041 -0.09511,-0.01383 0.09772,-0.04196 2.038608,-0.29733 3.685503,-1.944226 3.982835,-3.982834 0.02812,-0.192828 0.03799,-0.215782 0.04196,-0.09772 0.0029,0.08487 0.05164,0.337375 0.108392,0.561116 0.464912,1.832739 1.93763,3.188215 3.805103,3.502182 0.21955,0.03692 0.279117,0.05714 0.176798,0.06004 -0.244322,0.0069 -0.935827,0.196848 -1.315125,0.36122 -1.450876,0.628743 -2.557138,2.082858 -2.762036,3.630524 l -0.03337,0.252033 z"
         id="path5381" /><path
         style="opacity:1;fill:#ffffff;fill-opacity:0.74902;stroke:none;stroke-width:0.0537111;stroke-linecap:square;stroke-dasharray:0.322268, 0.322268;paint-order:fill markers stroke"
         d="m 50.355272,29.54204 c -0.100608,-0.837798 -0.727275,-1.659526 -1.531313,-2.00796 -0.209637,-0.09085 -0.59394,-0.196644 -0.731075,-0.201261 -0.06563,-0.0023 -0.05287,-0.0077 0.05432,-0.02332 1.133257,-0.165285 2.048762,-1.08079 2.214048,-2.214047 0.01563,-0.107193 0.02112,-0.119953 0.02332,-0.05432 0.0016,0.04718 0.02871,0.187546 0.06025,0.311923 0.258443,1.018814 1.077124,1.77232 2.115247,1.946853 0.122047,0.02052 0.15516,0.03176 0.09828,0.03338 -0.135818,0.0038 -0.520223,0.109428 -0.731074,0.200802 -0.806538,0.349516 -1.421506,1.157855 -1.535409,2.018199 l -0.01855,0.140104 z"
         id="path5383" /><path
         style="opacity:1;fill:#ffffff;fill-opacity:0.74902;stroke:none;stroke-width:0.0392952;stroke-linecap:square;stroke-dasharray:0.235772, 0.235772;paint-order:fill markers stroke"
         d="m 13.917708,12.058719 c -0.07361,-0.612936 -0.532078,-1.214115 -1.120315,-1.469031 -0.153371,-0.06647 -0.434529,-0.143865 -0.534857,-0.147243 -0.04801,-0.0017 -0.03868,-0.0056 0.03974,-0.01706 0.829095,-0.120923 1.498882,-0.7907098 1.619805,-1.6198048 0.01144,-0.07842 0.01545,-0.08776 0.01706,-0.03974 0.0012,0.03452 0.02101,0.137209 0.04408,0.228204 0.189077,0.745368 0.788028,1.2966358 1.547522,1.4243248 0.08929,0.01501 0.113516,0.02324 0.0719,0.02442 -0.09937,0.0028 -0.380597,0.08006 -0.534856,0.146907 -0.590066,0.255708 -1.039979,0.847091 -1.123311,1.476522 l -0.01357,0.102501 z"
         id="path5385" /><path
         style="opacity:1;fill:#ffffff;fill-opacity:0.74902;stroke:none;stroke-width:0.0392952;stroke-linecap:square;stroke-dasharray:0.235772, 0.235772;paint-order:fill markers stroke"
         d="m 26.937372,23.602798 c -0.07361,-0.612936 -0.532077,-1.214115 -1.120314,-1.469031 -0.153371,-0.06647 -0.434529,-0.143865 -0.534857,-0.147243 -0.04801,-0.0017 -0.03868,-0.0056 0.03974,-0.01706 0.829095,-0.120923 1.498882,-0.79071 1.619806,-1.619805 0.01143,-0.07842 0.01545,-0.08776 0.01706,-0.03974 0.0012,0.03452 0.021,0.137209 0.04408,0.228204 0.189078,0.745368 0.788028,1.296636 1.547522,1.424325 0.08929,0.01501 0.113516,0.02324 0.0719,0.02442 -0.09936,0.0028 -0.380597,0.08006 -0.534856,0.146907 -0.590066,0.255708 -1.039979,0.847091 -1.123311,1.476522 l -0.01357,0.102501 z"
         id="path5387" /><path
         style="fill:#ffffff;fill-opacity:0.74902;stroke:none;stroke-width:0.0165028;stroke-linecap:square;stroke-dasharray:0.0990172, 0.0990172;paint-order:fill markers stroke"
         d="m 49.065246,11.366549 c -0.03091,-0.257415 -0.223457,-0.509892 -0.470499,-0.616949 -0.06441,-0.02792 -0.182489,-0.06042 -0.224624,-0.06184 -0.02016,-7.14e-4 -0.01624,-0.0024 0.01669,-0.0072 0.348195,-0.05078 0.629486,-0.332074 0.68027,-0.680269 0.0048,-0.03293 0.0065,-0.03686 0.0072,-0.01669 5.04e-4,0.0145 0.0088,0.05762 0.01851,0.09584 0.07941,0.313032 0.330948,0.544548 0.649913,0.598174 0.0375,0.0063 0.04767,0.0098 0.0302,0.01026 -0.04173,0.0012 -0.15984,0.03362 -0.224624,0.0617 -0.24781,0.10739 -0.43676,0.355753 -0.471757,0.620095 l -0.0057,0.04305 z"
         id="path5387-9" /><path
         style="fill:#ffffff;fill-opacity:0.74902;stroke:none;stroke-width:0.0165028;stroke-linecap:square;stroke-dasharray:0.0990172, 0.0990172;paint-order:fill markers stroke"
         d="m 46.608731,18.278324 c -0.03091,-0.257415 -0.223457,-0.509892 -0.470499,-0.616949 -0.06441,-0.02792 -0.182489,-0.06042 -0.224623,-0.06184 -0.02016,-7.14e-4 -0.01624,-0.0024 0.01669,-0.0072 0.348195,-0.05078 0.629486,-0.332075 0.68027,-0.68027 0.0048,-0.03293 0.0065,-0.03686 0.0072,-0.01669 5.04e-4,0.0145 0.0088,0.05762 0.01851,0.09584 0.07941,0.313032 0.330948,0.544548 0.649913,0.598174 0.0375,0.0063 0.04767,0.0098 0.0302,0.01026 -0.04173,0.0012 -0.15984,0.03362 -0.224624,0.0617 -0.24781,0.10739 -0.43676,0.355753 -0.471757,0.620095 l -0.0057,0.04305 z"
         id="path5387-2" /><path
         style="fill:#ffffff;fill-opacity:0.74902;stroke:none;stroke-width:0.0165028;stroke-linecap:square;stroke-dasharray:0.0990172, 0.0990172;paint-order:fill markers stroke"
         d="m 39.250083,22.100878 c -0.03091,-0.257415 -0.223457,-0.509892 -0.470499,-0.616949 -0.06441,-0.02792 -0.182489,-0.06042 -0.224623,-0.06184 -0.02016,-7.14e-4 -0.01624,-0.0024 0.01669,-0.0072 0.348195,-0.05078 0.629486,-0.332075 0.68027,-0.68027 0.0048,-0.03293 0.0065,-0.03686 0.0072,-0.01669 5.04e-4,0.0145 0.0088,0.05762 0.01851,0.09584 0.07941,0.313032 0.330948,0.544548 0.649913,0.598174 0.0375,0.0063 0.04767,0.0098 0.0302,0.01026 -0.04173,0.0012 -0.15984,0.03362 -0.224624,0.0617 -0.24781,0.10739 -0.43676,0.355753 -0.471757,0.620095 l -0.0057,0.04305 z"
         id="path5387-2-9" /><path
         style="fill:#ffffff;fill-opacity:0.74902;stroke:none;stroke-width:0.0165028;stroke-linecap:square;stroke-dasharray:0.0990172, 0.0990172;paint-order:fill markers stroke"
         d="m 29.109379,31.096664 c -0.03091,-0.257415 -0.223457,-0.509892 -0.470499,-0.616949 -0.06441,-0.02792 -0.182489,-0.06042 -0.224623,-0.06184 -0.02016,-7.14e-4 -0.01624,-0.0024 0.01669,-0.0072 0.348195,-0.05078 0.629486,-0.332075 0.68027,-0.68027 0.0048,-0.03293 0.0065,-0.03686 0.0072,-0.01669 5.04e-4,0.0145 0.0088,0.05762 0.01851,0.09584 0.07941,0.313032 0.330948,0.544548 0.649913,0.598174 0.0375,0.0063 0.04767,0.0098 0.0302,0.01026 -0.04173,0.0012 -0.15984,0.03362 -0.224624,0.0617 -0.24781,0.10739 -0.43676,0.355753 -0.471757,0.620095 l -0.0057,0.04305 z"
         id="path5387-2-90" /><path
         style="fill:#ffffff;fill-opacity:0.74902;stroke:none;stroke-width:0.0317098;stroke-linecap:square;stroke-dasharray:0.190259, 0.190259;paint-order:fill markers stroke"
         d="m 60.508964,26.647834 c -0.0594,-0.494617 -0.429367,-0.979746 -0.904053,-1.185454 -0.123764,-0.05364 -0.350649,-0.116094 -0.43161,-0.11882 -0.03874,-0.0014 -0.03121,-0.0045 0.03207,-0.01377 0.669049,-0.09758 1.209543,-0.638074 1.307124,-1.307123 0.0092,-0.06328 0.01247,-0.07082 0.01377,-0.03207 9.68e-4,0.02786 0.01695,0.110723 0.03557,0.184152 0.152579,0.601485 0.63591,1.046338 1.248794,1.149378 0.07205,0.01211 0.0916,0.01875 0.05802,0.01971 -0.08018,0.0023 -0.307127,0.06461 -0.431609,0.118548 -0.476162,0.206347 -0.839225,0.683572 -0.906471,1.191499 l -0.01095,0.08272 z"
         id="path5387-7" /><path
         style="fill:#ffffff;fill-opacity:0.74902;stroke:none;stroke-width:0.0165028;stroke-linecap:square;stroke-dasharray:0.0990172, 0.0990172;paint-order:fill markers stroke"
         d="m 15.370361,30.442424 c -0.03091,-0.257415 -0.223457,-0.509892 -0.470499,-0.616949 -0.06441,-0.02792 -0.182489,-0.06042 -0.224624,-0.06184 -0.02016,-7.14e-4 -0.01624,-0.0024 0.01669,-0.0072 0.348195,-0.05078 0.629486,-0.332074 0.68027,-0.680269 0.0048,-0.03293 0.0065,-0.03686 0.0072,-0.01669 5.04e-4,0.0145 0.0088,0.05762 0.01851,0.09584 0.07941,0.313032 0.330948,0.544548 0.649913,0.598174 0.0375,0.0063 0.04767,0.0098 0.0302,0.01026 -0.04173,0.0012 -0.15984,0.03362 -0.224624,0.0617 -0.24781,0.10739 -0.43676,0.355753 -0.471757,0.620095 l -0.0057,0.04305 z"
         id="path5387-9-6" /><path
         style="fill:#ffffff;fill-opacity:0.74902;stroke:none;stroke-width:0.0165028;stroke-linecap:square;stroke-dasharray:0.0990172, 0.0990172;paint-order:fill markers stroke"
         d="m 11.772047,34.531417 c -0.03091,-0.257415 -0.223457,-0.509892 -0.470499,-0.616949 -0.06441,-0.02792 -0.182489,-0.06042 -0.224624,-0.06184 -0.02016,-7.14e-4 -0.01624,-0.0024 0.01669,-0.0072 0.348195,-0.05078 0.629486,-0.332074 0.68027,-0.680269 0.0048,-0.03293 0.0065,-0.03686 0.0072,-0.01669 5.04e-4,0.0145 0.0088,0.05762 0.01851,0.09584 0.07941,0.313032 0.330948,0.544548 0.649913,0.598174 0.0375,0.0063 0.04767,0.0098 0.0302,0.01026 -0.04173,0.0012 -0.15984,0.03362 -0.224624,0.0617 -0.24781,0.10739 -0.43676,0.355753 -0.471757,0.620095 l -0.0057,0.04305 z"
         id="path5387-9-63" /><path
         style="fill:#ffffff;fill-opacity:0.74902;stroke:none;stroke-width:0.0165028;stroke-linecap:square;stroke-dasharray:0.0990172, 0.0990172;paint-order:fill markers stroke"
         d="m 21.912751,35.839895 c -0.03091,-0.257415 -0.223457,-0.509892 -0.470499,-0.616949 -0.06441,-0.02792 -0.182489,-0.06042 -0.224624,-0.06184 -0.02016,-7.14e-4 -0.01624,-0.0024 0.01669,-0.0072 0.348195,-0.05078 0.629486,-0.332074 0.68027,-0.680269 0.0048,-0.03293 0.0065,-0.03686 0.0072,-0.01669 5.04e-4,0.0145 0.0088,0.05762 0.01851,0.09584 0.07941,0.313032 0.330948,0.544548 0.649913,0.598174 0.0375,0.0063 0.04767,0.0098 0.0302,0.01026 -0.04173,0.0012 -0.15984,0.03362 -0.224624,0.0617 -0.24781,0.10739 -0.43676,0.355753 -0.471757,0.620095 l -0.0057,0.04305 z"
         id="path5387-9-1" /><path
         style="fill:#ffffff;fill-opacity:0.74902;stroke:none;stroke-width:0.0537111;stroke-linecap:square;stroke-dasharray:0.322268, 0.322268;paint-order:fill markers stroke"
         d="m 39.731227,34.743719 c -0.100608,-0.837798 -0.727275,-1.659526 -1.531313,-2.00796 -0.209637,-0.09085 -0.59394,-0.196644 -0.731075,-0.201261 -0.06563,-0.0023 -0.05287,-0.0077 0.05432,-0.02332 1.133257,-0.165285 2.048762,-1.08079 2.214048,-2.214047 0.01563,-0.107193 0.02112,-0.119953 0.02332,-0.05432 0.0016,0.04718 0.02871,0.187546 0.06025,0.311923 0.258443,1.018814 1.077124,1.77232 2.115247,1.946853 0.122047,0.02052 0.15516,0.03176 0.09828,0.03338 -0.135818,0.0038 -0.520223,0.109428 -0.731074,0.200802 -0.806538,0.349516 -1.421506,1.157855 -1.535409,2.018199 l -0.01855,0.140104 z"
         id="path5383-4" /></g></g></svg>
